<mxfile host="app.diagrams.net" modified="2023-08-18T12:26:34.287Z" agent="Mozilla/5.0 (Windows NT 10.0; Win64; x64) AppleWebKit/537.36 (KHTML, like Gecko) Chrome/115.0.0.0 Safari/537.36" etag="aH5CUBH0ZHrfE12Wpsnl" version="21.6.8" type="github">
  <diagram name="Page-1" id="TMRuTJ8sJJcJ6fFbitei">
    <mxGraphModel dx="1183" dy="452" grid="1" gridSize="10" guides="1" tooltips="1" connect="1" arrows="1" fold="1" page="1" pageScale="1" pageWidth="850" pageHeight="1100" math="0" shadow="0">
      <root>
        <mxCell id="0" />
        <mxCell id="1" parent="0" />
        <mxCell id="9RbEeeJp4X1HdFao5gqJ-1" value="Store" style="rounded=0;whiteSpace=wrap;html=1;" vertex="1" parent="1">
          <mxGeometry x="150" y="80" width="80" height="20" as="geometry" />
        </mxCell>
        <mxCell id="9RbEeeJp4X1HdFao5gqJ-2" value="Department" style="rounded=0;whiteSpace=wrap;html=1;" vertex="1" parent="1">
          <mxGeometry x="370" y="80" width="90" height="20" as="geometry" />
        </mxCell>
        <mxCell id="9RbEeeJp4X1HdFao5gqJ-3" value="Employee" style="rounded=0;whiteSpace=wrap;html=1;" vertex="1" parent="1">
          <mxGeometry x="360" y="170" width="100" height="20" as="geometry" />
        </mxCell>
        <mxCell id="9RbEeeJp4X1HdFao5gqJ-4" value="Products" style="rounded=0;whiteSpace=wrap;html=1;" vertex="1" parent="1">
          <mxGeometry x="220" y="245" width="90" height="20" as="geometry" />
        </mxCell>
        <mxCell id="9RbEeeJp4X1HdFao5gqJ-6" value="has" style="shape=rhombus;perimeter=rhombusPerimeter;whiteSpace=wrap;html=1;align=center;" vertex="1" parent="1">
          <mxGeometry x="260" y="70" width="70" height="40" as="geometry" />
        </mxCell>
        <mxCell id="9RbEeeJp4X1HdFao5gqJ-8" value="" style="line;strokeWidth=1;rotatable=0;dashed=0;labelPosition=right;align=left;verticalAlign=middle;spacingTop=0;spacingLeft=6;points=[];portConstraint=eastwest;" vertex="1" parent="1">
          <mxGeometry x="230" y="85" width="30" height="10" as="geometry" />
        </mxCell>
        <mxCell id="9RbEeeJp4X1HdFao5gqJ-9" value="" style="line;strokeWidth=1;rotatable=0;dashed=0;labelPosition=right;align=left;verticalAlign=middle;spacingTop=0;spacingLeft=6;points=[];portConstraint=eastwest;" vertex="1" parent="1">
          <mxGeometry x="330" y="85" width="40" height="10" as="geometry" />
        </mxCell>
        <mxCell id="9RbEeeJp4X1HdFao5gqJ-10" value="M" style="text;html=1;strokeColor=none;fillColor=none;align=center;verticalAlign=middle;whiteSpace=wrap;rounded=0;" vertex="1" parent="1">
          <mxGeometry x="230" y="75" width="20" height="10" as="geometry" />
        </mxCell>
        <mxCell id="9RbEeeJp4X1HdFao5gqJ-11" value="M" style="text;html=1;strokeColor=none;fillColor=none;align=center;verticalAlign=middle;whiteSpace=wrap;rounded=0;" vertex="1" parent="1">
          <mxGeometry x="350" y="75" width="20" height="10" as="geometry" />
        </mxCell>
        <mxCell id="9RbEeeJp4X1HdFao5gqJ-12" value="Sales" style="rounded=0;whiteSpace=wrap;html=1;" vertex="1" parent="1">
          <mxGeometry x="370" y="280" width="90" height="20" as="geometry" />
        </mxCell>
        <mxCell id="9RbEeeJp4X1HdFao5gqJ-13" value="Debit" style="rounded=0;whiteSpace=wrap;html=1;" vertex="1" parent="1">
          <mxGeometry x="170" y="320" width="100" height="20" as="geometry" />
        </mxCell>
        <mxCell id="9RbEeeJp4X1HdFao5gqJ-14" value="Suppliers" style="rounded=0;whiteSpace=wrap;html=1;" vertex="1" parent="1">
          <mxGeometry x="80" y="160" width="90" height="20" as="geometry" />
        </mxCell>
        <mxCell id="9RbEeeJp4X1HdFao5gqJ-15" value="Supply" style="rounded=0;whiteSpace=wrap;html=1;" vertex="1" parent="1">
          <mxGeometry x="30" y="220" width="100" height="20" as="geometry" />
        </mxCell>
        <mxCell id="9RbEeeJp4X1HdFao5gqJ-16" value="has" style="shape=rhombus;perimeter=rhombusPerimeter;whiteSpace=wrap;html=1;align=center;" vertex="1" parent="1">
          <mxGeometry x="390" y="120" width="70" height="30" as="geometry" />
        </mxCell>
        <mxCell id="9RbEeeJp4X1HdFao5gqJ-22" value="" style="endArrow=none;html=1;rounded=0;exitX=0.5;exitY=0;exitDx=0;exitDy=0;" edge="1" parent="1" source="9RbEeeJp4X1HdFao5gqJ-16">
          <mxGeometry width="50" height="50" relative="1" as="geometry">
            <mxPoint x="375" y="150" as="sourcePoint" />
            <mxPoint x="425" y="100" as="targetPoint" />
          </mxGeometry>
        </mxCell>
        <mxCell id="9RbEeeJp4X1HdFao5gqJ-23" value="" style="endArrow=none;html=1;rounded=0;exitX=0.637;exitY=-0.108;exitDx=0;exitDy=0;exitPerimeter=0;" edge="1" parent="1" source="9RbEeeJp4X1HdFao5gqJ-3">
          <mxGeometry width="50" height="50" relative="1" as="geometry">
            <mxPoint x="375" y="200" as="sourcePoint" />
            <mxPoint x="425" y="150" as="targetPoint" />
            <Array as="points" />
          </mxGeometry>
        </mxCell>
        <mxCell id="9RbEeeJp4X1HdFao5gqJ-24" value="can" style="shape=rhombus;perimeter=rhombusPerimeter;whiteSpace=wrap;html=1;align=center;" vertex="1" parent="1">
          <mxGeometry x="380" y="220" width="70" height="30" as="geometry" />
        </mxCell>
        <mxCell id="9RbEeeJp4X1HdFao5gqJ-25" value="" style="endArrow=none;html=1;rounded=0;exitX=0.5;exitY=0;exitDx=0;exitDy=0;" edge="1" parent="1" source="9RbEeeJp4X1HdFao5gqJ-24">
          <mxGeometry width="50" height="50" relative="1" as="geometry">
            <mxPoint x="365" y="240" as="sourcePoint" />
            <mxPoint x="415" y="190" as="targetPoint" />
          </mxGeometry>
        </mxCell>
        <mxCell id="9RbEeeJp4X1HdFao5gqJ-28" value="" style="endArrow=none;html=1;rounded=0;exitX=0.5;exitY=0;exitDx=0;exitDy=0;" edge="1" parent="1" source="9RbEeeJp4X1HdFao5gqJ-12">
          <mxGeometry width="50" height="50" relative="1" as="geometry">
            <mxPoint x="370" y="300" as="sourcePoint" />
            <mxPoint x="420" y="250" as="targetPoint" />
          </mxGeometry>
        </mxCell>
        <mxCell id="9RbEeeJp4X1HdFao5gqJ-29" value="" style="endArrow=none;html=1;rounded=0;exitX=1;exitY=0.5;exitDx=0;exitDy=0;entryX=0;entryY=0.25;entryDx=0;entryDy=0;" edge="1" parent="1" source="9RbEeeJp4X1HdFao5gqJ-4" target="9RbEeeJp4X1HdFao5gqJ-12">
          <mxGeometry width="50" height="50" relative="1" as="geometry">
            <mxPoint x="300" y="320" as="sourcePoint" />
            <mxPoint x="350" y="270" as="targetPoint" />
          </mxGeometry>
        </mxCell>
      </root>
    </mxGraphModel>
  </diagram>
</mxfile>
